# xmcd CD database file
#
# Track frame offsets:
#	183
#	18848
#	36118
#	50325
#	61723
#	81105
#	95895
#	109385
#	124625
#	146555
#	169555
#
# Disc length: 2592 seconds
#
# Revision: 1
# Processed by: cddbd v1.5.2PL0 Copyright (c) Steve Scherf et al.
# Submitted via: CDex 1.51
#
DISCID=8a0a1e0b
DTITLE=Blues Project - Blues Project- live at the Cafe au Go Go
DYEAR=1966
DGENRE=Blues
TTITLE0=Goin' Down Louisiana
TTITLE1=You Go, I'll Go With You
TTITLE2=Catch the Wind
TTITLE3=I Want to be Your Driver
TTITLE4=Alberta
TTITLE5=The Way My Baby Walks
TTITLE6=Violets of Dawn
TTITLE7=Back Door Man
TTITLE8=Jelly Jelly Blues
TTITLE9=Spoonful
TTITLE10=Who Do You Love
EXTD=YEAR: 1966
EXTT0=
EXTT1=
EXTT2=
EXTT3=
EXTT4=
EXTT5=
EXTT6=
EXTT7=
EXTT8=
EXTT9=
EXTT10=
PLAYORDER=
